<svg xmlns="http://www.w3.org/2000/svg" viewBox="0 0 400 300" width="400" height="300">
  <rect width="400" height="300" fill="#0F766E"/>
  <rect x="20" y="162" width="360" height="16" rx="4" fill="rgba(255,255,255,0.12)"/>
  <rect x="30" y="100" width="70" height="70" rx="8" fill="rgba(255,255,255,0.18)"/>
  <rect x="42" y="115" width="46" height="30" rx="4" fill="rgba(255,255,255,0.28)"/>
  <rect x="120" y="88" width="80" height="82" rx="8" fill="rgba(255,255,255,0.18)"/>
  <rect x="132" y="105" width="56" height="20" rx="3" fill="rgba(255,255,255,0.28)"/>
  <rect x="132" y="132" width="56" height="20" rx="3" fill="rgba(255,255,255,0.2)"/>
  <rect x="220" y="78" width="100" height="92" rx="8" fill="rgba(255,255,255,0.18)"/>
  <circle cx="270" cy="115" r="25" fill="rgba(255,255,255,0.22)"/>
  <circle cx="270" cy="115" r="12" fill="rgba(255,255,255,0.35)"/>
  <rect x="340" y="112" width="45" height="58" rx="6" fill="rgba(255,255,255,0.15)"/>
  <circle cx="55"  cy="178" r="11" fill="rgba(255,255,255,0.25)"/>
  <circle cx="200" cy="178" r="11" fill="rgba(255,255,255,0.25)"/>
  <circle cx="358" cy="178" r="11" fill="rgba(255,255,255,0.25)"/>
  <rect x="110" y="228" width="180" height="26" rx="5" fill="rgba(0,0,0,0.3)"/>
  <text x="200" y="246" font-family="'Courier New',monospace" font-size="11" font-weight="700" fill="rgba(255,255,255,0.9)" text-anchor="middle">CEQ-PL-CAN-001</text>
</svg>
